<?xml version="1.0" encoding="UTF-8"?>
<svg id="Camada_2" data-name="Camada 2" xmlns="http://www.w3.org/2000/svg" viewBox="0 0 2129.33 824">
  <defs>
    <style>
      .cls-1 {
        fill: #30302f;
        stroke-width: 0px;
      }
    </style>
  </defs>
  <g id="Camada_1-2" data-name="Camada 1">
    <g>
      <path class="cls-1" d="M692.19,286.66l-20.95,11.18c-4.13,2.21-9.27.64-11.48-3.49l-5.59-10.47-3.47-6.5c-2.21-4.13-.64-9.27,3.49-11.48l20.95-11.18c3.25-1.74,3.23-6.44-.06-8.1-12.35-6.25-27.43-6.59-40.57.42-15.62,8.34-24.11,24.75-23.17,41.34l-91.09,48.62c-1.04.55-1.95,1.24-2.78,2-4.35,4.03-5.64,10.62-2.72,16.1l1.34,2.51,3.45,6.47c2.92,5.47,9.12,8.07,14.89,6.7,1.09-.26,2.17-.65,3.21-1.2l91.09-48.62c13.26,10.01,31.62,12.09,47.24,3.75,13.14-7.01,21.24-19.73,22.93-33.47.45-3.66-3.44-6.3-6.69-4.56Z"/>
      <g>
        <path class="cls-1" d="M412,0C184.46,0,0,184.45,0,412s184.46,412,412,412,412-184.46,412-412S639.54,0,412,0ZM388.5,375.99c7.04-4.63,15.47-7.33,24.53-7.33,7.22,0,14.04,1.71,20.07,4.75,13.87,6.98,23.6,20.98,24.53,37.34.05.85.08,1.71.08,2.58,0,15.61-8.01,29.35-20.14,37.33-7.04,4.64-15.47,7.34-24.54,7.34-7.21,0-14.03-1.71-20.06-4.75-13.87-6.98-23.6-20.98-24.53-37.34-.05-.85-.08-1.71-.08-2.58,0-15.61,8.01-29.35,20.14-37.34ZM56.75,413.35c.01-6.85.23-13.72.64-20.61,5.69-95.02,48.04-182.13,119.25-245.3,18.36-16.28,38.07-30.47,58.84-42.46l145.48,253.1c-3.76,2.17-7.32,4.74-10.65,7.68-12.89,11.44-20.56,27.22-21.59,44.42-.07,1.25-.11,2.49-.11,3.73l-291.86-.56ZM391.83,769.77c-56.43-3.38-110.08-19.69-157.57-47.3l146.48-252.6c8.6,5,18.32,7.96,28.53,8.57,12.78.77,25.2-2.2,36.02-8.44l145.48,253.09c-59.8,34.55-128.41,50.9-198.94,46.68ZM477.64,414.15c.06-15.84-5.64-30.97-16.24-42.93-4.66-5.24-10.01-9.61-15.89-13.03l146.48-252.59c32.47,18.88,62.07,43.04,87.73,71.95,58.59,66.05,90.07,149.59,89.78,237.17l-291.86-.57Z"/>
        <polygon class="cls-1" points="172.23 257.47 172.23 257.46 174.57 252.83 156.48 243.7 125.17 305.75 143.26 314.88 145.59 310.26 145.6 310.24 145.61 310.23 172.21 257.49 172.23 257.47"/>
        <path class="cls-1" d="M227.65,299.75c-19.67,5.1-33.75,5.82-40.87,2.24-1.9-.97-3.31-2.24-4.18-3.83-2.2-3.95-.51-9.13,4.52-13.85,4.01-3.77,9.58-6.85,15.84-8.89l-27.81-14.03h0s-.01,0-.01,0l-24.65,48.86,10.71,5.41c.48.24.85.64,1.04,1.13l19.95,49.5c1.41,3.57,5.73,5.75,9.44,4.77,1.7-.44,3.04-1.48,3.76-2.92.7-1.42.74-3.06.12-4.65-.01-.02-.02-.04-.02-.07-.05-.11-.08-.22-.1-.34l-9.76-24.18c-.46-1.12.08-2.39,1.2-2.84,1.13-.45,2.4.08,2.85,1.21l9.89,24.5c.04.1.07.21.1.32,1.53,3.4,5.72,5.44,9.33,4.49,1.73-.44,3.07-1.48,3.79-2.91.7-1.41.74-3.06.09-4.65,0-.02-.01-.05-.02-.07-.06-.16-.11-.32-.13-.49l-9.7-24.02c-.46-1.12.09-2.4,1.21-2.85,1.12-.46,2.39.09,2.84,1.21l9.89,24.5c.05.14.1.28.13.42,1.59,3.32,5.73,5.31,9.27,4.37,1.73-.45,3.07-1.48,3.79-2.91.7-1.41.74-3.06.09-4.65,0-.03-.02-.04-.02-.06-.08-.2-.13-.41-.15-.61l-9.67-23.95c-.45-1.12.09-2.4,1.21-2.85,1.13-.45,2.39.09,2.85,1.21l9.89,24.5c.07.18.11.35.14.53,1.62,3.28,5.71,5.23,9.23,4.3,1.66-.43,2.97-1.44,3.71-2.83.72-1.36.81-2.98.26-4.54l-20.05-50.48Z"/>
        <path class="cls-1" d="M293.77,321.47c-14.4-6.85-20.94-14.13-27.29-21.18-4.45-4.96-8.66-9.64-15.5-14.02-24.4-15.66-50.28-8.7-60.89,1.24-3.42,3.21-4.84,6.49-3.7,8.54,2.28,4.1,14.55,6.3,41.62-.9.03-.02.07-.04.1-.05,1.12-.45,2.4.1,2.84,1.23l20.43,51.44,23.33,11.48,19.06-37.78Z"/>
        <path class="cls-1" d="M298.76,321.35c-.03.06-.06.12-.09.17l-21,41.63-.03.04-3.55,7.05,18.09,9.13,28.18-55.85-18.09-9.13-3.51,6.96Z"/>
        <path class="cls-1" d="M407.28,611.99c2.87-18.31,5.46-36.66,8.14-55,1.03-7.05,2.03-14.1,3.15-21.91-1.17.86-1.58,1-1.72,1.28-19.51,39.21-38.98,78.43-58.52,117.63-1.77,3.54-.4,3.98,2.79,3.63,13.92-1.52,27.86-2.8,41.75-4.51,4.5-.55,6.02-.02,5.19,5.11-3.21,19.72-5.97,39.52-8.88,59.29-.76,5.17-1.44,10.36-2.16,15.54.45.14.9.27,1.36.41,20.04-40.42,40.09-80.84,60.19-121.36-2.69-1.06-4.66-.38-6.59-.18-13.56,1.38-27.13,2.72-40.67,4.33-3.81.45-4.62-.46-4.03-4.26Z"/>
      </g>
      <g>
        <path class="cls-1" d="M991.12,679.18h32.57v3.66h-32.57v-3.66ZM1005.38,681.17h4.1v31.11h-4.1v-31.11Z"/>
        <path class="cls-1" d="M1051.58,695.73l-2.56,15.58-2.16-2.65h25.86v3.62h-27.89l2.74-16.55-2.74-16.55h27.67v3.62h-25.64l2.16-2.6,2.56,15.53ZM1071.53,693.97v3.53h-22.59v-3.53h22.59Z"/>
        <path class="cls-1" d="M1130.13,699.57c-.29,2.62-1.22,4.93-2.78,6.93-1.56,2-3.6,3.56-6.13,4.68-2.53,1.12-5.4,1.68-8.61,1.68-3.65,0-6.85-.72-9.6-2.16-2.75-1.44-4.89-3.45-6.42-6.02-1.53-2.57-2.29-5.55-2.29-8.94s.76-6.36,2.29-8.94c1.53-2.57,3.67-4.58,6.42-6.02,2.75-1.44,5.95-2.16,9.6-2.16,3.21,0,6.08.56,8.61,1.68,2.53,1.12,4.57,2.67,6.13,4.66,1.56,1.99,2.49,4.3,2.78,6.95h-4.19c-.35-1.94-1.12-3.62-2.29-5.05-1.18-1.43-2.71-2.53-4.59-3.31-1.88-.78-4.06-1.17-6.53-1.17-2.82,0-5.29.54-7.39,1.63-2.1,1.09-3.73,2.63-4.88,4.63-1.15,2-1.72,4.37-1.72,7.11s.57,5.07,1.72,7.08c1.15,2.02,2.77,3.57,4.88,4.66,2.1,1.09,4.57,1.63,7.39,1.63,2.47,0,4.65-.38,6.53-1.15,1.88-.76,3.41-1.87,4.59-3.31,1.18-1.44,1.94-3.13,2.29-5.08h4.19Z"/>
        <path class="cls-1" d="M1184.15,710.21l-2.03.13v-31.16h3.97v33.1h-5.3l-25.24-31.16,2.03-.13v31.29h-3.97v-33.1h5.38l25.16,31.02Z"/>
        <path class="cls-1" d="M1228.46,712.85c-3.68,0-6.91-.72-9.71-2.16-2.79-1.44-4.97-3.45-6.53-6.02s-2.34-5.55-2.34-8.94.78-6.36,2.34-8.94,3.74-4.58,6.53-6.02c2.79-1.44,6.03-2.16,9.71-2.16s6.96.72,9.75,2.16c2.79,1.44,4.97,3.45,6.53,6.02s2.34,5.55,2.34,8.94-.78,6.36-2.34,8.94-3.74,4.58-6.53,6.02c-2.8,1.44-6.05,2.16-9.75,2.16ZM1228.46,709.1c2.94,0,5.49-.54,7.63-1.63,2.15-1.09,3.81-2.64,4.99-4.66,1.18-2.01,1.77-4.38,1.77-7.08s-.59-5.1-1.77-7.11c-1.18-2-2.84-3.54-4.99-4.63-2.15-1.09-4.69-1.63-7.63-1.63s-5.44.54-7.59,1.63c-2.15,1.09-3.81,2.63-4.99,4.63-1.18,2-1.77,4.37-1.77,7.11s.59,5.07,1.77,7.08c1.18,2.02,2.84,3.57,4.99,4.66,2.15,1.09,4.68,1.63,7.59,1.63Z"/>
        <path class="cls-1" d="M1274.97,679.18v31.24l-1.85-1.81h25.02v3.66h-27.27v-33.1h4.1Z"/>
        <path class="cls-1" d="M1334.68,712.85c-3.68,0-6.91-.72-9.71-2.16-2.79-1.44-4.97-3.45-6.53-6.02s-2.34-5.55-2.34-8.94.78-6.36,2.34-8.94,3.74-4.58,6.53-6.02c2.79-1.44,6.03-2.16,9.71-2.16s6.96.72,9.75,2.16c2.79,1.44,4.97,3.45,6.53,6.02s2.34,5.55,2.34,8.94-.78,6.36-2.34,8.94-3.74,4.58-6.53,6.02c-2.8,1.44-6.05,2.16-9.75,2.16ZM1334.68,709.1c2.94,0,5.49-.54,7.63-1.63,2.15-1.09,3.81-2.64,4.99-4.66,1.18-2.01,1.77-4.38,1.77-7.08s-.59-5.1-1.77-7.11c-1.18-2-2.84-3.54-4.99-4.63-2.15-1.09-4.69-1.63-7.63-1.63s-5.44.54-7.59,1.63c-2.15,1.09-3.81,2.63-4.99,4.63-1.18,2-1.77,4.37-1.77,7.11s.59,5.07,1.77,7.08c1.18,2.02,2.84,3.57,4.99,4.66,2.15,1.09,4.68,1.63,7.59,1.63Z"/>
        <path class="cls-1" d="M1409.83,697.85c0,2.12-.39,4.08-1.17,5.89-.78,1.81-1.89,3.4-3.33,4.77-1.44,1.37-3.16,2.43-5.16,3.2-2,.76-4.25,1.15-6.75,1.15-2.65,0-5.08-.4-7.3-1.21-2.22-.81-4.15-1.96-5.78-3.46-1.63-1.5-2.89-3.3-3.77-5.41s-1.32-4.45-1.32-7.04.45-4.94,1.35-7.04c.9-2.1,2.16-3.91,3.79-5.41,1.63-1.5,3.57-2.65,5.83-3.46,2.25-.81,4.71-1.21,7.39-1.21,3.24,0,6.1.55,8.61,1.66s4.52,2.6,6.05,4.48c1.53,1.88,2.44,4.04,2.74,6.49h-4.24c-.32-1.79-1.07-3.36-2.25-4.7s-2.68-2.38-4.52-3.11-3.99-1.1-6.46-1.1c-2.85,0-5.33.54-7.44,1.63-2.1,1.09-3.74,2.63-4.9,4.63-1.16,2-1.74,4.38-1.74,7.15s.59,5.16,1.77,7.17c1.18,2.02,2.84,3.58,4.99,4.68,2.15,1.1,4.68,1.66,7.59,1.66s5.29-.51,7.39-1.54c2.1-1.03,3.74-2.45,4.92-4.26,1.18-1.81,1.79-3.88,1.85-6.2l1.9.62ZM1395.4,699.66v-3.27h15.98v15.89h-3.22l-.4-14.03,1.15,1.41h-13.5Z"/>
        <path class="cls-1" d="M1435.91,679.18h4.1v33.1h-4.1v-33.1Z"/>
        <path class="cls-1" d="M1483.31,679.18l16.33,33.1h-4.5l-15.36-31.69h2.21l-15.36,31.69h-4.46l16.28-33.1h4.85ZM1469.06,704.07v-3.49h23.3v3.49h-23.3Z"/>
        <path class="cls-1" d="M1555.33,695.73l-2.56,15.58-2.16-2.65h25.86v3.62h-27.89l2.74-16.55-2.74-16.55h27.67v3.62h-25.64l2.16-2.6,2.56,15.53ZM1575.28,693.97v3.53h-22.59v-3.53h22.59Z"/>
        <path class="cls-1" d="M1643.11,679.18v33.1h-3.97v-32.13l1.59.04-16.73,32.08h-4.37l-16.73-32.04,1.59-.04v32.08h-3.93v-33.1h6.22l16.33,31.69h-2.56l16.28-31.69h6.27Z"/>
        <path class="cls-1" d="M1698.58,679.18h4.1v33.1h-4.1v-33.1Z"/>
        <path class="cls-1" d="M1770.91,679.18v33.1h-3.97v-32.13l1.59.04-16.73,32.08h-4.37l-16.73-32.04,1.59-.04v32.08h-3.93v-33.1h6.22l16.33,31.69h-2.56l16.28-31.69h6.27Z"/>
        <path class="cls-1" d="M1814.16,679.18l16.33,33.1h-4.5l-15.36-31.69h2.21l-15.36,31.69h-4.46l16.28-33.1h4.85ZM1799.9,704.07v-3.49h23.3v3.49h-23.3Z"/>
        <path class="cls-1" d="M1883.66,697.85c0,2.12-.39,4.08-1.17,5.89-.78,1.81-1.89,3.4-3.33,4.77-1.44,1.37-3.16,2.43-5.16,3.2-2,.76-4.25,1.15-6.75,1.15-2.65,0-5.08-.4-7.3-1.21-2.22-.81-4.15-1.96-5.78-3.46-1.63-1.5-2.89-3.3-3.77-5.41s-1.32-4.45-1.32-7.04.45-4.94,1.35-7.04c.9-2.1,2.16-3.91,3.79-5.41,1.63-1.5,3.57-2.65,5.83-3.46,2.25-.81,4.71-1.21,7.39-1.21,3.24,0,6.1.55,8.61,1.66s4.52,2.6,6.05,4.48c1.53,1.88,2.44,4.04,2.74,6.49h-4.24c-.32-1.79-1.07-3.36-2.25-4.7s-2.68-2.38-4.52-3.11-3.99-1.1-6.46-1.1c-2.85,0-5.33.54-7.44,1.63-2.1,1.09-3.74,2.63-4.9,4.63-1.16,2-1.74,4.38-1.74,7.15s.59,5.16,1.77,7.17c1.18,2.02,2.84,3.58,4.99,4.68,2.15,1.1,4.68,1.66,7.59,1.66s5.29-.51,7.39-1.54c2.1-1.03,3.74-2.45,4.92-4.26,1.18-1.81,1.79-3.88,1.85-6.2l1.9.62ZM1869.23,699.66v-3.27h15.98v15.89h-3.22l-.4-14.03,1.15,1.41h-13.5Z"/>
        <path class="cls-1" d="M1915.3,695.73l-2.56,15.58-2.16-2.65h25.86v3.62h-27.89l2.74-16.55-2.74-16.55h27.67v3.62h-25.64l2.16-2.6,2.56,15.53ZM1935.25,693.97v3.53h-22.59v-3.53h22.59Z"/>
        <path class="cls-1" d="M1991.08,710.21l-2.03.13v-31.16h3.97v33.1h-5.3l-25.24-31.16,2.03-.13v31.29h-3.97v-33.1h5.38l25.16,31.02Z"/>
        <path class="cls-1" d="M2016.49,701.56h4.15c.21,1.56.82,2.93,1.85,4.1,1.03,1.18,2.4,2.09,4.1,2.74,1.71.65,3.66.97,5.87.97,3.32,0,5.96-.57,7.92-1.7,1.96-1.13,2.93-2.68,2.93-4.66,0-1.5-.61-2.65-1.83-3.44-1.22-.79-3.36-1.37-6.42-1.72l-6.36-.79c-4.03-.47-6.93-1.43-8.69-2.89-1.77-1.46-2.65-3.42-2.65-5.89,0-1.97.59-3.69,1.76-5.14s2.83-2.57,4.96-3.35c2.13-.78,4.61-1.17,7.44-1.17s5.43.43,7.63,1.3c2.21.87,3.96,2.07,5.27,3.62,1.31,1.54,2.02,3.36,2.14,5.45h-4.15c-.18-1.41-.74-2.63-1.68-3.64-.94-1.02-2.21-1.81-3.79-2.38-1.59-.57-3.43-.86-5.52-.86-3.03,0-5.45.54-7.26,1.61-1.81,1.07-2.71,2.57-2.71,4.48,0,1.47.6,2.6,1.79,3.4,1.19.79,3.23,1.37,6.11,1.72l6.27.79c2.88.38,5.19.9,6.93,1.57,1.74.66,2.98,1.56,3.73,2.69.75,1.13,1.12,2.57,1.12,4.3,0,2.09-.63,3.9-1.88,5.43-1.25,1.53-3,2.71-5.25,3.53-2.25.82-4.89,1.24-7.92,1.24s-5.71-.48-8.05-1.43c-2.34-.96-4.2-2.28-5.58-3.97s-2.13-3.66-2.25-5.89Z"/>
      </g>
      <g>
        <path class="cls-1" d="M1128.48,181.58l107.19,244.35h-89.59l-84.38-207.21h21.5l-84.38,207.21h-89.59l107.19-244.35h112.07ZM987.74,384.88v-66.79h166.48v66.79h-166.48Z"/>
        <path class="cls-1" d="M1734.58,307.34l6.52-14.99c18.46.65,33.88,3.58,46.26,8.8,12.38,5.21,21.67,12.44,27.86,21.67,6.19,9.23,9.29,20.25,9.29,33.07s-2.99,25.2-8.96,35.84c-5.98,10.64-15.04,19.01-27.2,25.09-12.17,6.08-27.37,9.12-45.61,9.12h-191.89l18.57-125.43-18.57-118.92h185.05c22.59,0,40.29,5.27,53.1,15.8,12.81,10.54,19.22,25.14,19.22,43.82,0,10.64-2.39,20.64-7.17,29.97-4.78,9.34-12.54,17.22-23.29,23.62-10.75,6.41-25.14,10.59-43.17,12.54ZM1632.93,407.68l-31.93-37.47h115.01c7.17,0,12.81-1.9,16.94-5.7,4.12-3.8,6.19-8.96,6.19-15.48,0-5.86-2.01-10.86-6.03-14.99-4.02-4.12-9.94-6.19-17.76-6.19h-96.44v-54.73h84.06c5.65,0,10.37-1.74,14.17-5.21,3.8-3.47,5.7-7.93,5.7-13.36,0-4.99-1.74-9.12-5.21-12.38-3.48-3.26-8.36-4.89-14.66-4.89h-101.65l31.6-37.47,16.62,100.67-16.62,107.19Z"/>
        <path class="cls-1" d="M1532.05,320.04c-2.61,22.37-10.26,41.92-22.97,58.64-12.71,16.73-29.48,29.76-50.33,39.1-20.85,9.34-44.75,14.01-71.68,14.01-29.11,0-54.52-5.32-76.24-15.96-21.72-10.64-38.61-25.58-50.66-44.8-12.05-19.22-18.08-41.65-18.08-67.28s6.03-48.05,18.08-67.28c12.05-19.22,28.94-34.15,50.66-44.8,21.72-10.64,47.13-15.96,76.24-15.96,26.93,0,50.82,4.67,71.68,14.01,20.85,9.34,37.63,22.37,50.33,39.1,12.71,16.73,20.36,36.28,22.97,58.64h-84.38c-1.96-8.47-5.54-15.69-10.75-21.67-5.21-5.97-12-10.53-20.36-13.68-8.36-3.15-18.19-4.72-29.48-4.72-12.6,0-23.41,2.23-32.42,6.68-9.02,4.45-15.91,10.91-20.69,19.38-4.78,8.47-7.17,18.57-7.17,30.3s2.39,21.78,7.17,30.14c4.78,8.36,11.67,14.82,20.69,19.38,9.01,4.56,19.82,6.84,32.42,6.84,11.29,0,21.12-1.47,29.48-4.4,8.36-2.93,15.15-7.38,20.36-13.36,5.21-5.97,8.8-13.41,10.75-22.32h84.38Z"/>
        <path class="cls-1" d="M1849.14,345.45h85.36c.87,4.78,3.36,8.85,7.49,12.22,4.12,3.37,9.77,5.98,16.94,7.82,7.17,1.85,15.75,2.77,25.74,2.77,13.03,0,23.18-1.3,30.46-3.91,7.27-2.61,10.91-6.84,10.91-12.71,0-3.91-2.07-7.22-6.19-9.94-4.13-2.71-12.6-4.51-25.41-5.38l-40.4-2.61c-36.71-2.39-63.2-10.21-79.49-23.46-16.29-13.25-24.43-30.73-24.43-52.45,0-18.25,5.21-33.45,15.64-45.61,10.43-12.16,25.03-21.28,43.82-27.37,18.78-6.08,40.78-9.12,65.97-9.12s46.31,3.42,65.32,10.26c19,6.84,34.1,16.45,45.29,28.83,11.18,12.38,17.32,26.83,18.41,43.33h-85.36c-.65-3.91-2.77-7.27-6.35-10.1-3.58-2.82-8.63-4.99-15.15-6.52-6.52-1.52-14.45-2.28-23.78-2.28-11.95,0-21.34,1.2-28.18,3.58-6.84,2.39-10.26,6.3-10.26,11.73,0,3.7,2.01,6.84,6.03,9.45,4.02,2.61,11.78,4.35,23.29,5.21l45.61,2.93c23.89,1.52,43.22,5.05,57.99,10.59,14.77,5.54,25.58,13.2,32.42,22.97,6.84,9.77,10.26,21.83,10.26,36.16,0,18.03-5.33,33.78-15.96,47.24-10.64,13.47-25.58,23.95-44.8,31.44-19.22,7.49-41.65,11.24-67.28,11.24s-49.74-3.58-69.72-10.75c-19.99-7.17-35.57-17.27-46.75-30.3-11.19-13.03-17-28.13-17.43-45.29Z"/>
        <path class="cls-1" d="M1144.01,468.92v166.22h-19.95v-161.34l7.98.22-84,161.12h-21.94l-84-160.9,7.98-.22v161.12h-19.72v-166.22h31.25l82,159.12h-12.85l81.78-159.12h31.47Z"/>
        <path class="cls-1" d="M1212.05,552.03l-12.85,78.23-10.86-13.3h129.87v18.17h-140.07l13.74-83.11-13.74-83.11h138.96v18.17h-128.76l10.86-13.08,12.85,78.01ZM1312.22,543.16v17.73h-113.47v-17.73h113.47Z"/>
        <path class="cls-1" d="M1421.48,468.92c18.62,0,34.91,3.51,48.87,10.53,13.96,7.02,24.86,16.77,32.69,29.25,7.83,12.49,11.75,26.93,11.75,43.33s-3.92,30.84-11.75,43.33c-7.83,12.49-18.73,22.24-32.69,29.25-13.96,7.02-30.25,10.53-48.87,10.53h-70.92v-166.22h70.92ZM1371.17,629.6l-13.08-12.63h64.49c14.04,0,26.41-2.73,37.12-8.2,10.71-5.46,19.06-13.08,25.04-22.83,5.98-9.75,8.98-21.05,8.98-33.91s-2.99-24.34-8.98-34.02c-5.98-9.68-14.33-17.25-25.04-22.72-10.71-5.46-23.09-8.2-37.12-8.2h-64.49l13.08-12.63v155.13Z"/>
        <path class="cls-1" d="M1545.58,468.92h20.61v166.22h-20.61v-166.22Z"/>
        <path class="cls-1" d="M1777.18,571.31c-1.48,13.15-6.13,24.75-13.96,34.79-7.83,10.05-18.1,17.88-30.81,23.49-12.71,5.61-27.11,8.42-43.22,8.42-18.32,0-34.39-3.62-48.2-10.86-13.82-7.24-24.57-17.32-32.25-30.25-7.68-12.93-11.52-27.89-11.52-44.88s3.84-31.95,11.52-44.88c7.68-12.93,18.43-23.01,32.25-30.25,13.81-7.24,29.88-10.86,48.2-10.86,16.1,0,30.51,2.81,43.22,8.42,12.71,5.62,22.97,13.41,30.81,23.38,7.83,9.97,12.48,21.61,13.96,34.91h-21.05c-1.77-9.75-5.62-18.21-11.52-25.38-5.91-7.17-13.6-12.71-23.05-16.62-9.46-3.91-20.39-5.87-32.8-5.87-14.18,0-26.56,2.74-37.12,8.2-10.57,5.47-18.73,13.22-24.49,23.27-5.76,10.05-8.64,21.94-8.64,35.68s2.88,25.45,8.64,35.57c5.76,10.12,13.92,17.92,24.49,23.38,10.56,5.47,22.94,8.2,37.12,8.2,12.41,0,23.34-1.92,32.8-5.76,9.45-3.84,17.14-9.38,23.05-16.62,5.91-7.24,9.75-15.74,11.52-25.49h21.05Z"/>
        <path class="cls-1" d="M1887.99,468.92l82,166.22h-22.61l-77.12-159.12h11.08l-77.12,159.12h-22.38l81.78-166.22h24.38ZM1816.4,593.92v-17.51h117.02v17.51h-117.02Z"/>
        <path class="cls-1" d="M2012.98,468.92v156.91l-9.31-9.09h125.66v18.39h-136.96v-166.22h20.61Z"/>
      </g>
    </g>
  </g>
</svg>